<mxfile host="Electron" agent="Mozilla/5.0 (Windows NT 10.0; Win64; x64) AppleWebKit/537.36 (KHTML, like Gecko) draw.io/26.0.9 Chrome/128.0.6613.186 Electron/32.2.5 Safari/537.36" version="26.0.9">
  <diagram name="Page-1" id="Ykf3CN1-lXG22m4P1jO0">
    <mxGraphModel dx="1675" dy="973" grid="1" gridSize="10" guides="1" tooltips="1" connect="1" arrows="1" fold="1" page="1" pageScale="1" pageWidth="850" pageHeight="1100" math="0" shadow="0">
      <root>
        <mxCell id="0" />
        <mxCell id="1" parent="0" />
        <mxCell id="0_0h_a3t7lNPDmdERp5g-1" value="" style="rounded=0;whiteSpace=wrap;html=1;fillColor=#dae8fc;strokeColor=#6c8ebf;" vertex="1" parent="1">
          <mxGeometry x="360" y="50" width="320" height="430" as="geometry" />
        </mxCell>
        <mxCell id="0_0h_a3t7lNPDmdERp5g-2" value="Front&amp;nbsp;&lt;span style=&quot;background-color: transparent; color: light-dark(rgb(0, 0, 0), rgb(255, 255, 255));&quot;&gt;end&lt;/span&gt;" style="text;html=1;align=center;verticalAlign=middle;resizable=0;points=[];autosize=1;strokeColor=none;fillColor=none;" vertex="1" parent="1">
          <mxGeometry x="485" y="450" width="70" height="30" as="geometry" />
        </mxCell>
        <mxCell id="0_0h_a3t7lNPDmdERp5g-3" value="" style="rounded=0;whiteSpace=wrap;html=1;fillColor=#f8cecc;strokeColor=#b85450;" vertex="1" parent="1">
          <mxGeometry x="160" y="160" width="160" height="170" as="geometry" />
        </mxCell>
        <mxCell id="0_0h_a3t7lNPDmdERp5g-4" value="Back end" style="text;html=1;align=center;verticalAlign=middle;resizable=0;points=[];autosize=1;strokeColor=none;fillColor=none;" vertex="1" parent="1">
          <mxGeometry x="205" y="300" width="70" height="30" as="geometry" />
        </mxCell>
        <mxCell id="0_0h_a3t7lNPDmdERp5g-32" style="edgeStyle=orthogonalEdgeStyle;rounded=0;orthogonalLoop=1;jettySize=auto;html=1;exitX=0.5;exitY=0;exitDx=0;exitDy=0;entryX=0.5;entryY=1;entryDx=0;entryDy=0;" edge="1" parent="1" source="0_0h_a3t7lNPDmdERp5g-5" target="0_0h_a3t7lNPDmdERp5g-6">
          <mxGeometry relative="1" as="geometry" />
        </mxCell>
        <mxCell id="0_0h_a3t7lNPDmdERp5g-5" value="Text input" style="rounded=0;whiteSpace=wrap;html=1;" vertex="1" parent="1">
          <mxGeometry x="395" y="410" width="245" height="30" as="geometry" />
        </mxCell>
        <mxCell id="0_0h_a3t7lNPDmdERp5g-33" style="edgeStyle=orthogonalEdgeStyle;rounded=0;orthogonalLoop=1;jettySize=auto;html=1;exitX=0.5;exitY=0;exitDx=0;exitDy=0;entryX=0.5;entryY=1;entryDx=0;entryDy=0;" edge="1" parent="1" source="0_0h_a3t7lNPDmdERp5g-6" target="0_0h_a3t7lNPDmdERp5g-7">
          <mxGeometry relative="1" as="geometry" />
        </mxCell>
        <mxCell id="0_0h_a3t7lNPDmdERp5g-6" value="Pre-processing" style="rounded=0;whiteSpace=wrap;html=1;" vertex="1" parent="1">
          <mxGeometry x="395" y="360" width="245" height="30" as="geometry" />
        </mxCell>
        <mxCell id="0_0h_a3t7lNPDmdERp5g-7" value="Tokenization" style="rounded=0;whiteSpace=wrap;html=1;" vertex="1" parent="1">
          <mxGeometry x="395" y="310" width="245" height="30" as="geometry" />
        </mxCell>
        <mxCell id="0_0h_a3t7lNPDmdERp5g-12" style="edgeStyle=orthogonalEdgeStyle;rounded=0;orthogonalLoop=1;jettySize=auto;html=1;exitX=0;exitY=0.5;exitDx=0;exitDy=0;entryX=1.008;entryY=0.795;entryDx=0;entryDy=0;entryPerimeter=0;" edge="1" parent="1" source="0_0h_a3t7lNPDmdERp5g-8" target="0_0h_a3t7lNPDmdERp5g-10">
          <mxGeometry relative="1" as="geometry" />
        </mxCell>
        <mxCell id="0_0h_a3t7lNPDmdERp5g-8" value="Create mini-batches" style="rounded=0;whiteSpace=wrap;html=1;" vertex="1" parent="1">
          <mxGeometry x="395" y="250" width="165" height="40" as="geometry" />
        </mxCell>
        <mxCell id="0_0h_a3t7lNPDmdERp5g-9" value="ERRANT parsing" style="rounded=0;whiteSpace=wrap;html=1;" vertex="1" parent="1">
          <mxGeometry x="570" y="250" width="70" height="40" as="geometry" />
        </mxCell>
        <mxCell id="0_0h_a3t7lNPDmdERp5g-10" value="GEC base model prediction" style="rounded=0;whiteSpace=wrap;html=1;" vertex="1" parent="1">
          <mxGeometry x="180" y="180" width="120" height="112.5" as="geometry" />
        </mxCell>
        <mxCell id="0_0h_a3t7lNPDmdERp5g-14" value="ERRANT parsing" style="rounded=0;whiteSpace=wrap;html=1;" vertex="1" parent="1">
          <mxGeometry x="490" y="190" width="70" height="40" as="geometry" />
        </mxCell>
        <mxCell id="0_0h_a3t7lNPDmdERp5g-15" value="Corrected sentences" style="rounded=0;whiteSpace=wrap;html=1;fillColor=#d5e8d4;strokeColor=#82b366;" vertex="1" parent="1">
          <mxGeometry x="395" y="190" width="85" height="40" as="geometry" />
        </mxCell>
        <mxCell id="0_0h_a3t7lNPDmdERp5g-17" style="edgeStyle=orthogonalEdgeStyle;rounded=0;orthogonalLoop=1;jettySize=auto;html=1;exitX=0.99;exitY=0.273;exitDx=0;exitDy=0;entryX=0;entryY=0.5;entryDx=0;entryDy=0;exitPerimeter=0;" edge="1" parent="1" source="0_0h_a3t7lNPDmdERp5g-10" target="0_0h_a3t7lNPDmdERp5g-15">
          <mxGeometry relative="1" as="geometry" />
        </mxCell>
        <mxCell id="0_0h_a3t7lNPDmdERp5g-18" value="Generate list of corrections/edits" style="rounded=0;whiteSpace=wrap;html=1;" vertex="1" parent="1">
          <mxGeometry x="490" y="130" width="150" height="40" as="geometry" />
        </mxCell>
        <mxCell id="0_0h_a3t7lNPDmdERp5g-22" style="edgeStyle=orthogonalEdgeStyle;rounded=0;orthogonalLoop=1;jettySize=auto;html=1;exitX=0.5;exitY=0;exitDx=0;exitDy=0;entryX=0.771;entryY=1.04;entryDx=0;entryDy=0;entryPerimeter=0;" edge="1" parent="1" source="0_0h_a3t7lNPDmdERp5g-9" target="0_0h_a3t7lNPDmdERp5g-18">
          <mxGeometry relative="1" as="geometry" />
        </mxCell>
        <mxCell id="0_0h_a3t7lNPDmdERp5g-23" value="MEMT" style="rounded=0;whiteSpace=wrap;html=1;fillColor=#d5e8d4;strokeColor=#82b366;" vertex="1" parent="1">
          <mxGeometry x="395" y="70" width="75" height="40" as="geometry" />
        </mxCell>
        <mxCell id="0_0h_a3t7lNPDmdERp5g-24" value="Highlighted outputs" style="rounded=0;whiteSpace=wrap;html=1;fillColor=#d5e8d4;strokeColor=#82b366;" vertex="1" parent="1">
          <mxGeometry x="480" y="70" width="90" height="40" as="geometry" />
        </mxCell>
        <mxCell id="0_0h_a3t7lNPDmdERp5g-25" value="ESC" style="rounded=0;whiteSpace=wrap;html=1;fillColor=#d5e8d4;strokeColor=#82b366;" vertex="1" parent="1">
          <mxGeometry x="580" y="70" width="60" height="40" as="geometry" />
        </mxCell>
        <mxCell id="0_0h_a3t7lNPDmdERp5g-26" style="edgeStyle=orthogonalEdgeStyle;rounded=0;orthogonalLoop=1;jettySize=auto;html=1;exitX=0.5;exitY=0;exitDx=0;exitDy=0;entryX=0.234;entryY=0.981;entryDx=0;entryDy=0;entryPerimeter=0;" edge="1" parent="1" source="0_0h_a3t7lNPDmdERp5g-14" target="0_0h_a3t7lNPDmdERp5g-18">
          <mxGeometry relative="1" as="geometry" />
        </mxCell>
        <mxCell id="0_0h_a3t7lNPDmdERp5g-29" style="edgeStyle=orthogonalEdgeStyle;rounded=0;orthogonalLoop=1;jettySize=auto;html=1;exitX=0.234;exitY=0.012;exitDx=0;exitDy=0;entryX=0.5;entryY=1;entryDx=0;entryDy=0;exitPerimeter=0;" edge="1" parent="1" source="0_0h_a3t7lNPDmdERp5g-18" target="0_0h_a3t7lNPDmdERp5g-24">
          <mxGeometry relative="1" as="geometry" />
        </mxCell>
        <mxCell id="0_0h_a3t7lNPDmdERp5g-30" style="edgeStyle=orthogonalEdgeStyle;rounded=0;orthogonalLoop=1;jettySize=auto;html=1;entryX=0.5;entryY=1;entryDx=0;entryDy=0;" edge="1" parent="1" target="0_0h_a3t7lNPDmdERp5g-25">
          <mxGeometry relative="1" as="geometry">
            <mxPoint x="610" y="130" as="sourcePoint" />
          </mxGeometry>
        </mxCell>
        <mxCell id="0_0h_a3t7lNPDmdERp5g-31" style="edgeStyle=orthogonalEdgeStyle;rounded=0;orthogonalLoop=1;jettySize=auto;html=1;exitX=0.5;exitY=0;exitDx=0;exitDy=0;entryX=0.567;entryY=1.02;entryDx=0;entryDy=0;entryPerimeter=0;" edge="1" parent="1" source="0_0h_a3t7lNPDmdERp5g-15" target="0_0h_a3t7lNPDmdERp5g-23">
          <mxGeometry relative="1" as="geometry" />
        </mxCell>
        <mxCell id="0_0h_a3t7lNPDmdERp5g-34" style="edgeStyle=orthogonalEdgeStyle;rounded=0;orthogonalLoop=1;jettySize=auto;html=1;exitX=0.856;exitY=0.011;exitDx=0;exitDy=0;entryX=0.5;entryY=1;entryDx=0;entryDy=0;exitPerimeter=0;" edge="1" parent="1" source="0_0h_a3t7lNPDmdERp5g-7" target="0_0h_a3t7lNPDmdERp5g-9">
          <mxGeometry relative="1" as="geometry" />
        </mxCell>
        <mxCell id="0_0h_a3t7lNPDmdERp5g-35" style="edgeStyle=orthogonalEdgeStyle;rounded=0;orthogonalLoop=1;jettySize=auto;html=1;exitX=0.336;exitY=0;exitDx=0;exitDy=0;entryX=0.5;entryY=1;entryDx=0;entryDy=0;exitPerimeter=0;" edge="1" parent="1" source="0_0h_a3t7lNPDmdERp5g-7" target="0_0h_a3t7lNPDmdERp5g-8">
          <mxGeometry relative="1" as="geometry" />
        </mxCell>
      </root>
    </mxGraphModel>
  </diagram>
</mxfile>
